<svg width="48" height="48" viewBox="0 0 48 48" fill="none" xmlns="http://www.w3.org/2000/svg">
<path d="M36 0C42.6274 0 48 5.37258 48 12V36C48 42.6274 42.6274 48 36 48H12C5.37258 48 0 42.6274 0 36V12C0 5.37258 5.37258 0 12 0H36Z" fill="#6366F1" fill-opacity="0.2"/>
<path d="M36 0C42.6274 0 48 5.37258 48 12V36C48 42.6274 42.6274 48 36 48H12C5.37258 48 0 42.6274 0 36V12C0 5.37258 5.37258 0 12 0H36Z" stroke="#E5E7EB"/>
<path d="M35.25 38H12.75V10H35.25V38Z" stroke="#E5E7EB"/>
<g clip-path="url(#clip0_2_1805)">
<path d="M24 14.75C20.8438 14.75 18.3164 16.1875 16.4766 17.8984C14.6484 19.5938 13.4258 21.625 12.8477 23.0195C12.7188 23.3281 12.7188 23.6719 12.8477 23.9805C13.4258 25.375 14.6484 27.4062 16.4766 29.1016C18.3164 30.8125 20.8438 32.25 24 32.25C27.1562 32.25 29.6836 30.8125 31.5234 29.1016C33.3516 27.4023 34.5742 25.375 35.1562 23.9805C35.2852 23.6719 35.2852 23.3281 35.1562 23.0195C34.5742 21.625 33.3516 19.5938 31.5234 17.8984C29.6836 16.1875 27.1562 14.75 24 14.75ZM18.375 23.5C18.375 22.0082 18.9676 20.5774 20.0225 19.5225C21.0774 18.4676 22.5082 17.875 24 17.875C25.4918 17.875 26.9226 18.4676 27.9775 19.5225C29.0324 20.5774 29.625 22.0082 29.625 23.5C29.625 24.9918 29.0324 26.4226 27.9775 27.4775C26.9226 28.5324 25.4918 29.125 24 29.125C22.5082 29.125 21.0774 28.5324 20.0225 27.4775C18.9676 26.4226 18.375 24.9918 18.375 23.5ZM24 21C24 22.3789 22.8789 23.5 21.5 23.5C21.2227 23.5 20.957 23.4531 20.707 23.3711C20.4922 23.3008 20.2422 23.4336 20.25 23.6602C20.2617 23.9297 20.3008 24.1992 20.375 24.4688C20.9102 26.4688 22.9688 27.6562 24.9688 27.1211C26.9688 26.5859 28.1563 24.5273 27.6211 22.5273C27.1875 20.9062 25.7539 19.8164 24.1602 19.75C23.9336 19.7422 23.8008 19.9883 23.8711 20.207C23.9531 20.457 24 20.7227 24 21Z" fill="#6366F1"/>
</g>
<defs>
<clipPath id="clip0_2_1805">
<path d="M12.75 13.5H35.25V33.5H12.75V13.5Z" fill="white"/>
</clipPath>
</defs>
</svg>
