<svg width="48" height="48" viewBox="0 0 48 48" fill="none" xmlns="http://www.w3.org/2000/svg">
<path d="M36 0C42.6274 0 48 5.37258 48 12V36C48 42.6274 42.6274 48 36 48H12C5.37258 48 0 42.6274 0 36V12C0 5.37258 5.37258 0 12 0H36Z" fill="#8B5CF6" fill-opacity="0.2"/>
<path d="M36 0C42.6274 0 48 5.37258 48 12V36C48 42.6274 42.6274 48 36 48H12C5.37258 48 0 42.6274 0 36V12C0 5.37258 5.37258 0 12 0H36Z" stroke="#E5E7EB"/>
<path d="M34 38H14V10H34V38Z" stroke="#E5E7EB"/>
<g clip-path="url(#clip0_2_1813)">
<path d="M21.1875 13.5C22.3945 13.5 23.375 14.4805 23.375 15.6875V31.3125C23.375 32.5195 22.3945 33.5 21.1875 33.5C20.0586 33.5 19.1289 32.6445 19.0117 31.543C18.8086 31.5977 18.5938 31.625 18.375 31.625C16.9961 31.625 15.875 30.5039 15.875 29.125C15.875 28.8359 15.9258 28.5547 16.0156 28.2969C14.8359 27.8516 14 26.7109 14 25.375C14 24.1289 14.7305 23.0508 15.7891 22.5508C15.4492 22.125 15.25 21.5859 15.25 21C15.25 19.8008 16.0938 18.8008 17.2188 18.5547C17.1562 18.3398 17.125 18.1094 17.125 17.875C17.125 16.707 17.9297 15.7227 19.0117 15.4492C19.1289 14.3555 20.0586 13.5 21.1875 13.5ZM26.8125 13.5C27.9414 13.5 28.8672 14.3555 28.9883 15.4492C30.0742 15.7227 30.875 16.7031 30.875 17.875C30.875 18.1094 30.8438 18.3398 30.7812 18.5547C31.9062 18.7969 32.75 19.8008 32.75 21C32.75 21.5859 32.5508 22.125 32.2109 22.5508C33.2695 23.0508 34 24.1289 34 25.375C34 26.7109 33.1641 27.8516 31.9844 28.2969C32.0742 28.5547 32.125 28.8359 32.125 29.125C32.125 30.5039 31.0039 31.625 29.625 31.625C29.4062 31.625 29.1914 31.5977 28.9883 31.543C28.8711 32.6445 27.9414 33.5 26.8125 33.5C25.6055 33.5 24.625 32.5195 24.625 31.3125V15.6875C24.625 14.4805 25.6055 13.5 26.8125 13.5Z" fill="#8B5CF6"/>
</g>
<defs>
<clipPath id="clip0_2_1813">
<path d="M14 13.5H34V33.5H14V13.5Z" fill="white"/>
</clipPath>
</defs>
</svg>
