<svg width="48" height="48" viewBox="0 0 48 48" fill="none" xmlns="http://www.w3.org/2000/svg">
<path d="M36 0C42.6274 0 48 5.37258 48 12V36C48 42.6274 42.6274 48 36 48H12C5.37258 48 0 42.6274 0 36V12C0 5.37258 5.37258 0 12 0H36Z" fill="#FED7AA"/>
<path d="M36 0C42.6274 0 48 5.37258 48 12V36C48 42.6274 42.6274 48 36 48H12C5.37258 48 0 42.6274 0 36V12C0 5.37258 5.37258 0 12 0H36Z" stroke="#E5E7EB"/>
<path d="M36.5 38H11.5V10H36.5V38Z" stroke="#E5E7EB"/>
<g clip-path="url(#clip0_2_1837)">
<path d="M23.5507 18.7852C23.828 18.5391 23.9374 18.1523 23.7928 17.8086C23.703 17.6016 23.6053 17.3984 23.496 17.2031L23.3749 16.9922C23.2577 16.7969 23.1288 16.6055 22.9921 16.4219C22.7694 16.125 22.3788 16.0273 22.0272 16.1445L20.9257 16.5078C20.5077 16.1641 20.0272 15.8828 19.5116 15.6914L19.2733 14.5586C19.1991 14.1953 18.9178 13.9063 18.5507 13.8633C18.2928 13.8281 18.0311 13.8125 17.7655 13.8125H17.7382C17.4725 13.8125 17.2108 13.8281 16.953 13.8594C16.5858 13.9023 16.3046 14.1953 16.2303 14.5547L15.9921 15.6914C15.4725 15.8867 14.996 16.1641 14.578 16.5078L13.4725 16.1484C13.121 16.0312 12.7303 16.1289 12.5077 16.4258C12.371 16.6094 12.2421 16.8008 12.121 16.9961L12.0038 17.2031C11.8944 17.3984 11.7968 17.6016 11.7069 17.8125C11.5624 18.1523 11.6718 18.5391 11.9491 18.7891L12.8163 19.5625C12.7733 19.8242 12.7499 20.0977 12.7499 20.375C12.7499 20.6523 12.7733 20.9258 12.8163 21.1914L11.9491 21.9648C11.6718 22.2109 11.5624 22.5977 11.7069 22.9414C11.7968 23.1484 11.8944 23.3516 12.0038 23.5508L12.121 23.7539C12.2382 23.9531 12.3671 24.1406 12.5077 24.3242C12.7303 24.6211 13.121 24.7188 13.4725 24.6016L14.5741 24.2383C14.9921 24.582 15.4725 24.8633 15.9882 25.0547L16.2264 26.1914C16.3007 26.5547 16.5819 26.8438 16.9491 26.8867C17.2108 26.918 17.4764 26.9336 17.746 26.9336C18.0155 26.9336 18.2811 26.918 18.5428 26.8867C18.91 26.8438 19.1913 26.5508 19.2655 26.1914L19.5038 25.0547C20.0233 24.8594 20.4999 24.582 20.9178 24.2383L22.0194 24.6016C22.371 24.7188 22.7616 24.6211 22.9843 24.3242C23.121 24.1406 23.2499 23.9531 23.3671 23.7539L23.4882 23.543C23.5975 23.3477 23.6952 23.1445 23.785 22.9375C23.9296 22.5977 23.8202 22.2109 23.5428 21.9609L22.6757 21.1875C22.7186 20.9219 22.7421 20.6484 22.7421 20.3711C22.7421 20.0938 22.7186 19.8203 22.6757 19.5547L23.5428 18.7812L23.5507 18.7852ZM15.8749 20.375C15.8749 19.8777 16.0724 19.4008 16.4241 19.0492C16.7757 18.6975 17.2526 18.5 17.7499 18.5C18.2472 18.5 18.7241 18.6975 19.0757 19.0492C19.4273 19.4008 19.6249 19.8777 19.6249 20.375C19.6249 20.8723 19.4273 21.3492 19.0757 21.7008C18.7241 22.0525 18.2472 22.25 17.7499 22.25C17.2526 22.25 16.7757 22.0525 16.4241 21.7008C16.0724 21.3492 15.8749 20.8723 15.8749 20.375ZM31.2147 33.0508C31.4608 33.3281 31.8475 33.4375 32.1913 33.293C32.3983 33.2031 32.6014 33.1055 32.7968 32.9961L33.0077 32.875C33.203 32.7578 33.3944 32.6289 33.578 32.4922C33.8749 32.2695 33.9725 31.8789 33.8553 31.5273L33.4921 30.4258C33.8358 30.0078 34.1171 29.5273 34.3085 29.0117L35.4452 28.7734C35.8085 28.6992 36.0975 28.418 36.1405 28.0508C36.1718 27.7891 36.1874 27.5234 36.1874 27.2539C36.1874 26.9844 36.1718 26.7188 36.1405 26.457C36.0975 26.0898 35.8046 25.8086 35.4452 25.7344L34.3085 25.4922C34.1132 24.9727 33.8358 24.4961 33.4921 24.0781L33.8553 22.9766C33.9725 22.625 33.8749 22.2344 33.578 22.0117C33.3944 21.875 33.203 21.7461 33.0077 21.625L32.8007 21.5078C32.6053 21.3984 32.4022 21.3008 32.1913 21.2109C31.8514 21.0664 31.4647 21.1758 31.2147 21.4531L30.4413 22.3203C30.1757 22.2773 29.9022 22.2539 29.6249 22.2539C29.3475 22.2539 29.0741 22.2773 28.8085 22.3203L28.035 21.4531C27.7889 21.1758 27.4022 21.0664 27.0585 21.2109C26.8514 21.3008 26.6483 21.3984 26.4491 21.5078L26.246 21.625C26.0468 21.7422 25.8593 21.8711 25.6757 22.0117C25.3788 22.2344 25.2811 22.625 25.3983 22.9766L25.7616 24.0781C25.4178 24.4961 25.1366 24.9766 24.9452 25.4922L23.8085 25.7266C23.4452 25.8008 23.1561 26.082 23.1132 26.4492C23.0819 26.7109 23.0663 26.9766 23.0663 27.2461C23.0663 27.5156 23.0819 27.7812 23.1132 28.043C23.1561 28.4102 23.4491 28.6914 23.8085 28.7656L24.9452 29.0039C25.1405 29.5234 25.4178 30 25.7616 30.418L25.3983 31.5195C25.2811 31.8711 25.3788 32.2617 25.6757 32.4844C25.8593 32.6211 26.0468 32.75 26.246 32.8672L26.4569 32.9883C26.6522 33.0977 26.8553 33.1953 27.0624 33.2852C27.4022 33.4297 27.7889 33.3203 28.0389 33.043L28.8124 32.1758C29.078 32.2188 29.3514 32.2422 29.6288 32.2422C29.9061 32.2422 30.1796 32.2188 30.4452 32.1758L31.2186 33.043L31.2147 33.0508ZM29.6249 25.375C29.8711 25.375 30.1149 25.4235 30.3424 25.5177C30.5699 25.612 30.7766 25.7501 30.9507 25.9242C31.1248 26.0983 31.2629 26.305 31.3572 26.5325C31.4514 26.76 31.4999 27.0038 31.4999 27.25C31.4999 27.4962 31.4514 27.74 31.3572 27.9675C31.2629 28.195 31.1248 28.4017 30.9507 28.5758C30.7766 28.7499 30.5699 28.888 30.3424 28.9823C30.1149 29.0765 29.8711 29.125 29.6249 29.125C29.3787 29.125 29.1348 29.0765 28.9073 28.9823C28.6799 28.888 28.4732 28.7499 28.2991 28.5758C28.1249 28.4017 27.9868 28.195 27.8926 27.9675C27.7984 27.74 27.7499 27.4962 27.7499 27.25C27.7499 27.0038 27.7984 26.76 27.8926 26.5325C27.9868 26.305 28.1249 26.0983 28.2991 25.9242C28.4732 25.7501 28.6799 25.612 28.9073 25.5177C29.1348 25.4235 29.3787 25.375 29.6249 25.375Z" fill="#EA580C"/>
</g>
<defs>
<clipPath id="clip0_2_1837">
<path d="M11.5 13.5H36.5V33.5H11.5V13.5Z" fill="white"/>
</clipPath>
</defs>
</svg>
