<svg width="40" height="40" viewBox="0 0 40 40" fill="none" xmlns="http://www.w3.org/2000/svg">
<path d="M28 0C34.6274 0 40 5.37258 40 12V28C40 34.6274 34.6274 40 28 40H12C5.37258 40 0 34.6274 0 28V12C0 5.37258 5.37258 0 12 0H28Z" fill="url(#paint0_linear_2_1943)"/>
<path d="M28 0C34.6274 0 40 5.37258 40 12V28C40 34.6274 34.6274 40 28 40H12C5.37258 40 0 34.6274 0 28V12C0 5.37258 5.37258 0 12 0H28Z" stroke="#E5E7EB"/>
<path d="M31.25 34H8.75V6H31.25V34Z" stroke="#E5E7EB"/>
<g clip-path="url(#clip0_2_1943)">
<path d="M20.0001 11.375C19.7153 11.375 19.434 11.4242 19.1668 11.5191L9.30552 15.0805C8.97154 15.2035 8.75005 15.5199 8.75005 15.875C8.75005 16.2301 8.97154 16.5465 9.30552 16.6695L11.3411 17.4043C10.7645 18.3113 10.4376 19.3836 10.4376 20.5121V21.5C10.4376 22.4984 10.0579 23.5285 9.65357 24.3406C9.42505 24.7977 9.1649 25.2477 8.86255 25.6625C8.75005 25.8137 8.71841 26.0105 8.78169 26.1898C8.84497 26.3691 8.99263 26.5027 9.17544 26.5484L11.4254 27.1109C11.5731 27.1496 11.7313 27.1215 11.8614 27.0406C11.9915 26.9598 12.0829 26.8262 12.111 26.675C12.4133 25.1703 12.2622 23.8203 12.0372 22.8535C11.9247 22.3543 11.7735 21.8445 11.5626 21.377V20.5121C11.5626 19.4504 11.9211 18.4484 12.5434 17.6469C12.9969 17.102 13.584 16.6625 14.2731 16.3918L19.7926 14.2227C20.0809 14.1102 20.4079 14.2508 20.5204 14.5391C20.6329 14.8273 20.4922 15.1543 20.204 15.2668L14.6844 17.4359C14.2485 17.6082 13.8653 17.8719 13.5524 18.1953L19.1633 20.2203C19.4305 20.3152 19.7118 20.3645 19.9965 20.3645C20.2813 20.3645 20.5626 20.3152 20.8297 20.2203L30.6946 16.6695C31.0286 16.55 31.2501 16.2301 31.2501 15.875C31.2501 15.5199 31.0286 15.2035 30.6946 15.0805L20.8333 11.5191C20.5661 11.4242 20.2848 11.375 20.0001 11.375ZM13.2501 24.5938C13.2501 25.8348 16.2735 27.125 20.0001 27.125C23.7266 27.125 26.7501 25.8348 26.7501 24.5938L26.2122 19.482L21.2129 21.2891C20.8227 21.4297 20.4114 21.5 20.0001 21.5C19.5887 21.5 19.1739 21.4297 18.7872 21.2891L13.7879 19.482L13.2501 24.5938Z" fill="white"/>
</g>
<defs>
<linearGradient id="paint0_linear_2_1943" x1="-14.1421" y1="14.1421" x2="14.1421" y2="42.4264" gradientUnits="userSpaceOnUse">
<stop stop-color="#6366F1"/>
<stop offset="1" stop-color="#8B5CF6"/>
</linearGradient>
<clipPath id="clip0_2_1943">
<path d="M8.75 10.25H31.25V28.25H8.75V10.25Z" fill="white"/>
</clipPath>
</defs>
</svg>
