<svg width="48" height="48" viewBox="0 0 48 48" fill="none" xmlns="http://www.w3.org/2000/svg">
<path d="M36 0C42.6274 0 48 5.37258 48 12V36C48 42.6274 42.6274 48 36 48H12C5.37258 48 0 42.6274 0 36V12C0 5.37258 5.37258 0 12 0H36Z" fill="#BBF7D0"/>
<path d="M36 0C42.6274 0 48 5.37258 48 12V36C48 42.6274 42.6274 48 36 48H12C5.37258 48 0 42.6274 0 36V12C0 5.37258 5.37258 0 12 0H36Z" stroke="#E5E7EB"/>
<path d="M32.75 38H15.25V10H32.75V38Z" stroke="#E5E7EB"/>
<g clip-path="url(#clip0_2_1829)">
<path d="M16.5 14.75C15.8086 14.75 15.25 15.3086 15.25 16V19.75C15.25 20.4414 15.8086 21 16.5 21C17.1914 21 17.75 20.4414 17.75 19.75V17.25H20.25C20.9414 17.25 21.5 16.6914 21.5 16C21.5 15.3086 20.9414 14.75 20.25 14.75H16.5ZM17.75 27.25C17.75 26.5586 17.1914 26 16.5 26C15.8086 26 15.25 26.5586 15.25 27.25V31C15.25 31.6914 15.8086 32.25 16.5 32.25H20.25C20.9414 32.25 21.5 31.6914 21.5 31C21.5 30.3086 20.9414 29.75 20.25 29.75H17.75V27.25ZM27.75 14.75C27.0586 14.75 26.5 15.3086 26.5 16C26.5 16.6914 27.0586 17.25 27.75 17.25H30.25V19.75C30.25 20.4414 30.8086 21 31.5 21C32.1914 21 32.75 20.4414 32.75 19.75V16C32.75 15.3086 32.1914 14.75 31.5 14.75H27.75ZM32.75 27.25C32.75 26.5586 32.1914 26 31.5 26C30.8086 26 30.25 26.5586 30.25 27.25V29.75H27.75C27.0586 29.75 26.5 30.3086 26.5 31C26.5 31.6914 27.0586 32.25 27.75 32.25H31.5C32.1914 32.25 32.75 31.6914 32.75 31V27.25Z" fill="#16A34A"/>
</g>
<defs>
<clipPath id="clip0_2_1829">
<path d="M15.25 13.5H32.75V33.5H15.25V13.5Z" fill="white"/>
</clipPath>
</defs>
</svg>
