<svg width="14" height="20" viewBox="0 0 14 20" fill="none" xmlns="http://www.w3.org/2000/svg">
<path d="M14 20H0V0H14V20Z" stroke="#E5E7EB"/>
<g clip-path="url(#clip0_2_1726)">
<path d="M4.2793 14.9918L3.93477 15.7984C3.42344 15.5387 2.95312 15.2188 2.52656 14.8441L3.14727 14.2234C3.48906 14.5215 3.86914 14.7812 4.2793 14.9918ZM1.11016 10.1875H0.232422C0.270703 10.7672 0.380078 11.3277 0.552344 11.8582L1.36719 11.5328C1.2332 11.1035 1.14297 10.6523 1.11016 10.1875ZM1.11016 9.3125C1.14844 8.79844 1.25234 8.30078 1.41367 7.8332L0.607031 7.48867C0.401953 8.06289 0.273438 8.67539 0.232422 9.3125H1.11016ZM1.7582 7.0293C1.97148 6.62188 2.22852 6.2418 2.52656 5.89453L1.90586 5.27383C1.53125 5.70039 1.20859 6.1707 0.951562 6.68203L1.7582 7.0293ZM10.8555 14.2234C10.4754 14.5516 10.0516 14.8332 9.59492 15.0547L9.92031 15.8695C10.4863 15.5988 11.0086 15.2516 11.4762 14.8414L10.8555 14.2234ZM3.14453 5.27656C3.52461 4.94844 3.94844 4.6668 4.40508 4.44531L4.07969 3.63047C3.51367 3.90117 2.99141 4.24844 2.52656 4.65859L3.14453 5.27656ZM12.2418 12.4707C12.0285 12.8781 11.7715 13.2582 11.4734 13.6055L12.0941 14.2262C12.4688 13.7996 12.7914 13.3266 13.0484 12.818L12.2418 12.4707ZM12.8898 10.1875C12.8516 10.7016 12.7477 11.1992 12.5863 11.6668L13.393 12.0113C13.598 11.4344 13.7266 10.8219 13.7648 10.1848H12.8898V10.1875ZM8.78281 15.3828C8.35352 15.5195 7.90234 15.607 7.4375 15.6398V16.5176C8.01719 16.4793 8.57773 16.3699 9.1082 16.1977L8.78281 15.3828ZM6.5625 15.6398C6.04844 15.6016 5.55078 15.4977 5.0832 15.3363L4.73867 16.143C5.31563 16.348 5.92813 16.4766 6.56523 16.5148V15.6398H6.5625ZM12.6328 7.96719C12.7695 8.39648 12.857 8.84766 12.8898 9.3125H13.7676C13.7293 8.73281 13.6199 8.17227 13.4477 7.6418L12.6328 7.96719ZM2.52656 13.6055C2.19844 13.2254 1.9168 12.8016 1.69531 12.3449L0.880469 12.6703C1.15117 13.2363 1.49844 13.7586 1.90859 14.2262L2.52656 13.6055ZM7.4375 3.86016C7.95156 3.89844 8.44648 4.00234 8.9168 4.16367L9.26133 3.35703C8.68711 3.15195 8.07461 3.02344 7.4375 2.98242V3.86016ZM5.21719 4.11719C5.64648 3.98047 6.09766 3.89297 6.5625 3.86016V2.98242C5.98281 3.0207 5.42227 3.13008 4.8918 3.30234L5.21719 4.11719ZM12.0941 5.27383L11.4734 5.89453C11.8016 6.27461 12.0832 6.69844 12.3074 7.15508L13.1223 6.82969C12.8516 6.26367 12.5043 5.74141 12.0941 5.27383ZM10.8555 5.27656L11.4762 4.65586C11.0496 4.28125 10.5793 3.95859 10.068 3.70156L9.72344 4.5082C10.1281 4.72148 10.5109 4.97852 10.8555 5.27656Z" fill="#6366F1"/>
<path d="M7 13.4688C7.42284 13.4688 7.76562 13.126 7.76562 12.7031C7.76562 12.2803 7.42284 11.9375 7 11.9375C6.57716 11.9375 6.23438 12.2803 6.23438 12.7031C6.23438 13.126 6.57716 13.4688 7 13.4688Z" fill="#6366F1"/>
<path d="M7.21055 11.2812H6.77305C6.59258 11.2812 6.44492 11.1336 6.44492 10.9531C6.44492 9.01172 8.56133 9.20586 8.56133 8.00547C8.56133 7.45859 8.07461 6.90625 6.9918 6.90625C6.19609 6.90625 5.78047 7.16875 5.37305 7.69102C5.26641 7.82773 5.06953 7.85508 4.93008 7.75664L4.57187 7.50508C4.41875 7.39844 4.3832 7.18242 4.50078 7.03477C5.08047 6.29102 5.76953 5.8125 6.99453 5.8125C8.42461 5.8125 9.65781 6.62734 9.65781 8.00547C9.65781 9.85391 7.5414 9.7418 7.5414 10.9531C7.53867 11.1336 7.39102 11.2812 7.21055 11.2812Z" fill="#6366F1"/>
</g>
<defs>
<clipPath id="clip0_2_1726">
<path d="M0 2.75H14V16.75H0V2.75Z" fill="white"/>
</clipPath>
</defs>
</svg>
