<svg width="12" height="24" viewBox="0 0 12 24" fill="none" xmlns="http://www.w3.org/2000/svg">
<path d="M12 24H0V0H12V24Z" stroke="#E5E7EB"/>
<g clip-path="url(#clip0_2_1780)">
<path d="M2 4C0.896875 4 0 4.89688 0 6V18C0 19.1031 0.896875 20 2 20H10C11.1031 20 12 19.1031 12 18V9H8C7.44688 9 7 8.55312 7 8V4H2ZM8 4V8H12L8 4ZM3.5 12H8.5C8.775 12 9 12.225 9 12.5C9 12.775 8.775 13 8.5 13H3.5C3.225 13 3 12.775 3 12.5C3 12.225 3.225 12 3.5 12ZM3.5 14H8.5C8.775 14 9 14.225 9 14.5C9 14.775 8.775 15 8.5 15H3.5C3.225 15 3 14.775 3 14.5C3 14.225 3.225 14 3.5 14ZM3.5 16H8.5C8.775 16 9 16.225 9 16.5C9 16.775 8.775 17 8.5 17H3.5C3.225 17 3 16.775 3 16.5C3 16.225 3.225 16 3.5 16Z" fill="#6366F1"/>
</g>
<defs>
<clipPath id="clip0_2_1780">
<path d="M0 4H12V20H0V4Z" fill="white"/>
</clipPath>
</defs>
</svg>
